<svg xmlns="http://www.w3.org/2000/svg" width="480" height="1396" viewBox="0 0 480 1396" role="img" aria-labelledby="ttl dsc">
  <title id="ttl">How you draw the line shapes what you catch</title>
  <desc id="dsc">Three panels compare a broader rule, a narrower rule and a more targeted rule on the same scatter of threat-relevant and benign activity. The broader rule misses fewer threats but constrains more other activity; the narrower rule misses more threats but constrains less; the targeted rule does well on both but requires more case-level information.</desc>
  <defs>
    <pattern id="grid" width="30" height="30" patternUnits="userSpaceOnUse">
      <path d="M 30 0 L 0 0 0 30" fill="none" stroke="#e2e8ee" stroke-width="1"/>
    </pattern>
    <style>
      .hd { font-family: "IBM Plex Mono", "DejaVu Sans Mono", "Courier New", Courier, monospace; font-size: 13px; font-weight: 700; letter-spacing: 1.5px; fill: #1e2833; }
      .hs { font-family: "IBM Plex Mono", "DejaVu Sans Mono", "Courier New", Courier, monospace; font-size: 11px; font-weight: 700; letter-spacing: 1px; fill: #1e2833; }
      .lb { font-family: "IBM Plex Mono", "DejaVu Sans Mono", "Courier New", Courier, monospace; font-size: 10px; font-weight: 700; letter-spacing: 1px; fill: #6b7482; }
      .ph { font-family: "IBM Plex Mono", "DejaVu Sans Mono", "Courier New", Courier, monospace; font-size: 10px; font-weight: 700; letter-spacing: 1.5px; fill: #4f6a8a; }
      .rd { font-family: "IBM Plex Mono", "DejaVu Sans Mono", "Courier New", Courier, monospace; font-size: 9.5px; font-weight: 700; letter-spacing: 1px; fill: #c0392b; }
      .bl { font-family: "IBM Plex Mono", "DejaVu Sans Mono", "Courier New", Courier, monospace; font-size: 9.5px; font-weight: 700; letter-spacing: 1px; fill: #3f5f85; }
      .bd { font-family: Charter, "Source Serif 4", "Source Serif Pro", Georgia, "DejaVu Serif", serif; font-size: 16px; fill: #2f3b4b; }
      .b2 { font-family: Charter, "Source Serif 4", "Source Serif Pro", Georgia, "DejaVu Serif", serif; font-size: 14px; fill: #2f3b4b; }
      .b3 { font-family: Charter, "Source Serif 4", "Source Serif Pro", Georgia, "DejaVu Serif", serif; font-size: 12px; fill: #2f3b4b; }
      .bi { font-family: Charter, "Source Serif 4", "Source Serif Pro", Georgia, "DejaVu Serif", serif; font-size: 13px; font-style: italic; fill: #6b7482; }
      .ef { font-family: Charter, "Source Serif 4", "Source Serif Pro", Georgia, "DejaVu Serif", serif; font-size: 12px; font-weight: 700; fill: #1e2833; }
      .box { fill: #fdfdfe; stroke: #1e2833; stroke-width: 2.5; }
      .box-out { fill: #d6e4f2; stroke: #1e2833; stroke-width: 2.5; }
      .outline { fill: none; stroke: #1e2833; stroke-width: 2.5; }
      .cell { stroke: #1e2833; stroke-width: 1.5; }
      .sep { stroke: #1e2833; stroke-width: 2; }
      .thin { stroke: #c5ccd4; stroke-width: 1; }
      .arr { stroke: #1e2833; stroke-width: 3.5; fill: none; }
      .head { fill: #1e2833; }
      .fb { stroke: #7d8794; stroke-width: 2.5; fill: none; stroke-dasharray: 8 6; }
      .fbhead { fill: #7d8794; }
      .sm { stroke: #8a95a3; stroke-width: 2; fill: none; }
      .smhead { fill: #8a95a3; }
      .band { fill: #eef3f8; stroke: #9fb3c8; stroke-width: 1.2; }
      .note { fill: #fbeae6; stroke: #d0503c; stroke-width: 1.2; }
      .noteb { fill: #eaf0f6; stroke: #4a6b8f; stroke-width: 1.2; }
      .rl { stroke: #d0503c; stroke-width: 1.2; fill: none; stroke-dasharray: 4 3; }
      .bll { stroke: #4a6b8f; stroke-width: 1.2; fill: none; stroke-dasharray: 4 3; }
      .dn { fill: #f7f9fb; stroke: #8a95a3; stroke-width: 1.5; stroke-dasharray: 5 4; }
      .red { fill: #fdfdfe; stroke: #c0392b; stroke-width: 2; }
      .redt { font-family: "IBM Plex Mono", "DejaVu Sans Mono", "Courier New", Courier, monospace; font-size: 11px; font-weight: 700; letter-spacing: 1px; fill: #c0392b; }
      .redl { font-family: "IBM Plex Mono", "DejaVu Sans Mono", "Courier New", Courier, monospace; font-size: 10px; font-weight: 700; letter-spacing: 0.5px; fill: #c0392b; }
      .ghost { fill: #eceff2; stroke: #8a95a3; stroke-width: 1.5; stroke-dasharray: 5 4; }
      .ghostt { font-family: "IBM Plex Mono", "DejaVu Sans Mono", "Courier New", Courier, monospace; font-size: 11px; font-weight: 700; letter-spacing: 1px; fill: #8a95a3; }
      .cross { stroke: #b5bcc5; stroke-width: 1.2; stroke-dasharray: 4 3; }
      .cap { font-family: "IBM Plex Mono", "DejaVu Sans Mono", "Courier New", Courier, monospace; font-size: 11px; letter-spacing: 0.3px; fill: #2f3b4b; }
      .dot-b { fill: #5b7fa6; }
      .dot-g { fill: #a9a9a9; }
      .cons { fill: #dfe7ef; }
      .open { fill: #ebe9e5; }
      .line { stroke: #1e2833; stroke-width: 1.8; fill: none; stroke-dasharray: 6 4; }
      .st { font-family: "IBM Plex Mono", "DejaVu Sans Mono", "Courier New", Courier, monospace; font-size: 9px; font-weight: 700; letter-spacing: 1px; fill: #4f6a8a; }
      .sv { font-family: Charter, "Source Serif 4", "Source Serif Pro", Georgia, "DejaVu Serif", serif; font-size: 13px; font-weight: 700; fill: #1e2833; }
      .th { font-family: "IBM Plex Mono", "DejaVu Sans Mono", "Courier New", Courier, monospace; font-size: 9px; font-weight: 700; letter-spacing: 0.5px; fill: #2b3a55; }
      .rh { font-family: Charter, "Source Serif 4", "Source Serif Pro", Georgia, "DejaVu Serif", serif; font-size: 13px; font-weight: 700; fill: #2b3a55; }
      .tv { font-family: Charter, "Source Serif 4", "Source Serif Pro", Georgia, "DejaVu Serif", serif; font-size: 14px; fill: #2b3a55; }
    </style>
  </defs>
  <rect width="480" height="1396" fill="#f3f6f9"/>
  <rect width="480" height="1396" fill="url(#grid)"/>
  <rect class="box" x="20" y="20" width="440" height="400" />
  <line class="sep" x1="20" y1="56" x2="460" y2="56"/>
  <text class="hd" x="240.0" y="38" text-anchor="middle" dominant-baseline="central" >BROADER RULE</text>
  <text class="b2" x="240.0" y="78" text-anchor="middle" dominant-baseline="central" >Constrains a wider range of activity.</text>
  <circle class="dot-b" cx="110" cy="102" r="4"/>
  <text class="b3" x="120" y="102" text-anchor="start" dominant-baseline="central" >threat-relevant activity</text>
  <circle class="dot-g" cx="270" cy="102" r="4"/>
  <text class="b3" x="280" y="102" text-anchor="start" dominant-baseline="central" >other or benign activity</text>
  <polygon class="cons" points="36,120 36.0,304.0 444.0,244.0 444,120"/>
  <polygon class="open" points="36,320 36.0,304.0 444.0,244.0 444,320"/>
  <polyline class="line" points="36.0,304.0 444.0,244.0"/>
  <circle class="dot-b" cx="109.4" cy="156.0" r="4.5"/>
  <circle class="dot-b" cx="138.0" cy="176.0" r="4.5"/>
  <circle class="dot-b" cx="166.6" cy="144.0" r="4.5"/>
  <circle class="dot-b" cx="191.0" cy="164.0" r="4.5"/>
  <circle class="dot-b" cx="219.6" cy="140.0" r="4.5"/>
  <circle class="dot-b" cx="248.2" cy="156.0" r="4.5"/>
  <circle class="dot-b" cx="272.6" cy="136.0" r="4.5"/>
  <circle class="dot-b" cx="289.0" cy="160.0" r="4.5"/>
  <circle class="dot-b" cx="321.6" cy="150.0" r="4.5"/>
  <circle class="dot-b" cx="354.2" cy="170.0" r="4.5"/>
  <circle class="dot-b" cx="382.8" cy="144.0" r="4.5"/>
  <circle class="dot-b" cx="403.2" cy="180.0" r="4.5"/>
  <circle class="dot-b" cx="125.8" cy="196.0" r="4.5"/>
  <circle class="dot-b" cx="199.2" cy="204.0" r="4.5"/>
  <circle class="dot-b" cx="231.8" cy="190.0" r="4.5"/>
  <circle class="dot-b" cx="260.4" cy="212.0" r="4.5"/>
  <circle class="dot-b" cx="301.2" cy="200.0" r="4.5"/>
  <circle class="dot-b" cx="329.8" cy="180.0" r="4.5"/>
  <circle class="dot-b" cx="362.4" cy="210.0" r="4.5"/>
  <circle class="dot-b" cx="272.6" cy="246.0" r="4.5"/>
  <circle class="dot-b" cx="170.6" cy="180.0" r="4.5"/>
  <circle class="dot-b" cx="85.0" cy="180.0" r="4.5"/>
  <circle class="dot-g" cx="76.8" cy="244.0" r="4.5"/>
  <circle class="dot-g" cx="117.6" cy="264.0" r="4.5"/>
  <circle class="dot-g" cx="158.4" cy="240.0" r="4.5"/>
  <circle class="dot-g" cx="207.4" cy="270.0" r="4.5"/>
  <circle class="dot-g" cx="240.0" cy="236.0" r="4.5"/>
  <circle class="dot-g" cx="280.8" cy="280.0" r="4.5"/>
  <circle class="dot-g" cx="313.4" cy="252.0" r="4.5"/>
  <circle class="dot-g" cx="354.2" cy="244.0" r="4.5"/>
  <circle class="dot-g" cx="395.0" cy="276.0" r="4.5"/>
  <circle class="dot-g" cx="423.6" cy="240.0" r="4.5"/>
  <circle class="dot-g" cx="97.2" cy="296.0" r="4.5"/>
  <circle class="dot-g" cx="178.8" cy="300.0" r="4.5"/>
  <circle class="dot-g" cx="260.4" cy="304.0" r="4.5"/>
  <circle class="dot-g" cx="342.0" cy="296.0" r="4.5"/>
  <circle class="dot-g" cx="403.2" cy="284.0" r="4.5"/>
  <circle class="dot-g" cx="150.2" cy="214.0" r="4.5"/>
  <circle class="dot-g" cx="227.8" cy="220.0" r="4.5"/>
  <circle class="dot-g" cx="382.8" cy="230.0" r="4.5"/>
  <text class="st" x="44" y="132" text-anchor="start" dominant-baseline="central" >CONSTRAINED</text>
  <text class="st" x="436" y="308" text-anchor="end" dominant-baseline="central" >LEFT OPEN</text>
  <line class="thin" x1="48" y1="338" x2="432" y2="338"/>
  <text class="st" x="48" y="360" text-anchor="start" dominant-baseline="central" >THREAT-RELEVANT ACTIVITY MISSED</text>
  <text class="sv" x="432" y="360" text-anchor="end" dominant-baseline="central" >FEWER</text>
  <text class="st" x="48" y="384" text-anchor="start" dominant-baseline="central" >OTHER ACTIVITY CONSTRAINED</text>
  <text class="sv" x="432" y="384" text-anchor="end" dominant-baseline="central" >MORE</text>
  <text class="st" x="48" y="408" text-anchor="start" dominant-baseline="central" >CASE-LEVEL INFORMATION REQUIRED</text>
  <text class="sv" x="432" y="408" text-anchor="end" dominant-baseline="central" >LOWER</text>
  <rect class="box" x="20" y="444" width="440" height="400" />
  <line class="sep" x1="20" y1="480" x2="460" y2="480"/>
  <text class="hd" x="240.0" y="462" text-anchor="middle" dominant-baseline="central" >NARROWER RULE</text>
  <text class="b2" x="240.0" y="502" text-anchor="middle" dominant-baseline="central" >Constrains a narrower range of activity.</text>
  <circle class="dot-b" cx="110" cy="526" r="4"/>
  <text class="b3" x="120" y="526" text-anchor="start" dominant-baseline="central" >threat-relevant activity</text>
  <circle class="dot-g" cx="270" cy="526" r="4"/>
  <text class="b3" x="280" y="526" text-anchor="start" dominant-baseline="central" >other or benign activity</text>
  <polygon class="cons" points="36,544 36.0,668.0 444.0,604.0 444,544"/>
  <polygon class="open" points="36,744 36.0,668.0 444.0,604.0 444,744"/>
  <polyline class="line" points="36.0,668.0 444.0,604.0"/>
  <circle class="dot-b" cx="109.4" cy="580.0" r="4.5"/>
  <circle class="dot-b" cx="138.0" cy="600.0" r="4.5"/>
  <circle class="dot-b" cx="166.6" cy="568.0" r="4.5"/>
  <circle class="dot-b" cx="191.0" cy="588.0" r="4.5"/>
  <circle class="dot-b" cx="219.6" cy="564.0" r="4.5"/>
  <circle class="dot-b" cx="248.2" cy="580.0" r="4.5"/>
  <circle class="dot-b" cx="272.6" cy="560.0" r="4.5"/>
  <circle class="dot-b" cx="289.0" cy="584.0" r="4.5"/>
  <circle class="dot-b" cx="321.6" cy="574.0" r="4.5"/>
  <circle class="dot-b" cx="354.2" cy="594.0" r="4.5"/>
  <circle class="dot-b" cx="382.8" cy="568.0" r="4.5"/>
  <circle class="dot-b" cx="403.2" cy="604.0" r="4.5"/>
  <circle class="dot-b" cx="125.8" cy="620.0" r="4.5"/>
  <circle class="dot-b" cx="199.2" cy="628.0" r="4.5"/>
  <circle class="dot-b" cx="231.8" cy="614.0" r="4.5"/>
  <circle class="dot-b" cx="260.4" cy="636.0" r="4.5"/>
  <circle class="dot-b" cx="301.2" cy="624.0" r="4.5"/>
  <circle class="dot-b" cx="329.8" cy="604.0" r="4.5"/>
  <circle class="dot-b" cx="362.4" cy="634.0" r="4.5"/>
  <circle class="dot-b" cx="272.6" cy="670.0" r="4.5"/>
  <circle class="dot-b" cx="170.6" cy="604.0" r="4.5"/>
  <circle class="dot-b" cx="85.0" cy="604.0" r="4.5"/>
  <circle class="dot-g" cx="76.8" cy="668.0" r="4.5"/>
  <circle class="dot-g" cx="117.6" cy="688.0" r="4.5"/>
  <circle class="dot-g" cx="158.4" cy="664.0" r="4.5"/>
  <circle class="dot-g" cx="207.4" cy="694.0" r="4.5"/>
  <circle class="dot-g" cx="240.0" cy="660.0" r="4.5"/>
  <circle class="dot-g" cx="280.8" cy="704.0" r="4.5"/>
  <circle class="dot-g" cx="313.4" cy="676.0" r="4.5"/>
  <circle class="dot-g" cx="354.2" cy="668.0" r="4.5"/>
  <circle class="dot-g" cx="395.0" cy="700.0" r="4.5"/>
  <circle class="dot-g" cx="423.6" cy="664.0" r="4.5"/>
  <circle class="dot-g" cx="97.2" cy="720.0" r="4.5"/>
  <circle class="dot-g" cx="178.8" cy="724.0" r="4.5"/>
  <circle class="dot-g" cx="260.4" cy="728.0" r="4.5"/>
  <circle class="dot-g" cx="342.0" cy="720.0" r="4.5"/>
  <circle class="dot-g" cx="403.2" cy="708.0" r="4.5"/>
  <circle class="dot-g" cx="150.2" cy="638.0" r="4.5"/>
  <circle class="dot-g" cx="227.8" cy="644.0" r="4.5"/>
  <circle class="dot-g" cx="382.8" cy="654.0" r="4.5"/>
  <text class="st" x="44" y="556" text-anchor="start" dominant-baseline="central" >CONSTRAINED</text>
  <text class="st" x="436" y="732" text-anchor="end" dominant-baseline="central" >LEFT OPEN</text>
  <line class="thin" x1="48" y1="762" x2="432" y2="762"/>
  <text class="st" x="48" y="784" text-anchor="start" dominant-baseline="central" >THREAT-RELEVANT ACTIVITY MISSED</text>
  <text class="sv" x="432" y="784" text-anchor="end" dominant-baseline="central" >MORE</text>
  <text class="st" x="48" y="808" text-anchor="start" dominant-baseline="central" >OTHER ACTIVITY CONSTRAINED</text>
  <text class="sv" x="432" y="808" text-anchor="end" dominant-baseline="central" >FEWER</text>
  <text class="st" x="48" y="832" text-anchor="start" dominant-baseline="central" >CASE-LEVEL INFORMATION REQUIRED</text>
  <text class="sv" x="432" y="832" text-anchor="end" dominant-baseline="central" >LOWER</text>
  <rect class="box" x="20" y="868" width="440" height="400" />
  <line class="sep" x1="20" y1="904" x2="460" y2="904"/>
  <text class="hd" x="240.0" y="886" text-anchor="middle" dominant-baseline="central" >MORE TARGETED RULE</text>
  <text class="b2" x="240.0" y="926" text-anchor="middle" dominant-baseline="central" >Uses more information to distinguish cases.</text>
  <circle class="dot-b" cx="110" cy="950" r="4"/>
  <text class="b3" x="120" y="950" text-anchor="start" dominant-baseline="central" >threat-relevant activity</text>
  <circle class="dot-g" cx="270" cy="950" r="4"/>
  <text class="b3" x="280" y="950" text-anchor="start" dominant-baseline="central" >other or benign activity</text>
  <polygon class="cons" points="36,968 36.0,1072.0 109.4,1076.0 150.2,1056.0 207.4,1048.0 248.2,1052.0 262.4,1088.0 272.6,1112.0 282.8,1088.0 297.1,1052.0 342.0,1048.0 382.8,1060.0 444.0,1050.0 444,968"/>
  <polygon class="open" points="36,1168 36.0,1072.0 109.4,1076.0 150.2,1056.0 207.4,1048.0 248.2,1052.0 262.4,1088.0 272.6,1112.0 282.8,1088.0 297.1,1052.0 342.0,1048.0 382.8,1060.0 444.0,1050.0 444,1168"/>
  <polyline class="line" points="36.0,1072.0 109.4,1076.0 150.2,1056.0 207.4,1048.0 248.2,1052.0 262.4,1088.0 272.6,1112.0 282.8,1088.0 297.1,1052.0 342.0,1048.0 382.8,1060.0 444.0,1050.0"/>
  <circle class="dot-b" cx="109.4" cy="1004.0" r="4.5"/>
  <circle class="dot-b" cx="138.0" cy="1024.0" r="4.5"/>
  <circle class="dot-b" cx="166.6" cy="992.0" r="4.5"/>
  <circle class="dot-b" cx="191.0" cy="1012.0" r="4.5"/>
  <circle class="dot-b" cx="219.6" cy="988.0" r="4.5"/>
  <circle class="dot-b" cx="248.2" cy="1004.0" r="4.5"/>
  <circle class="dot-b" cx="272.6" cy="984.0" r="4.5"/>
  <circle class="dot-b" cx="289.0" cy="1008.0" r="4.5"/>
  <circle class="dot-b" cx="321.6" cy="998.0" r="4.5"/>
  <circle class="dot-b" cx="354.2" cy="1018.0" r="4.5"/>
  <circle class="dot-b" cx="382.8" cy="992.0" r="4.5"/>
  <circle class="dot-b" cx="403.2" cy="1028.0" r="4.5"/>
  <circle class="dot-b" cx="125.8" cy="1044.0" r="4.5"/>
  <circle class="dot-b" cx="199.2" cy="1052.0" r="4.5"/>
  <circle class="dot-b" cx="231.8" cy="1038.0" r="4.5"/>
  <circle class="dot-b" cx="260.4" cy="1060.0" r="4.5"/>
  <circle class="dot-b" cx="301.2" cy="1048.0" r="4.5"/>
  <circle class="dot-b" cx="329.8" cy="1028.0" r="4.5"/>
  <circle class="dot-b" cx="362.4" cy="1058.0" r="4.5"/>
  <circle class="dot-b" cx="272.6" cy="1094.0" r="4.5"/>
  <circle class="dot-b" cx="170.6" cy="1028.0" r="4.5"/>
  <circle class="dot-b" cx="85.0" cy="1028.0" r="4.5"/>
  <circle class="dot-g" cx="76.8" cy="1092.0" r="4.5"/>
  <circle class="dot-g" cx="117.6" cy="1112.0" r="4.5"/>
  <circle class="dot-g" cx="158.4" cy="1088.0" r="4.5"/>
  <circle class="dot-g" cx="207.4" cy="1118.0" r="4.5"/>
  <circle class="dot-g" cx="240.0" cy="1084.0" r="4.5"/>
  <circle class="dot-g" cx="280.8" cy="1128.0" r="4.5"/>
  <circle class="dot-g" cx="313.4" cy="1100.0" r="4.5"/>
  <circle class="dot-g" cx="354.2" cy="1092.0" r="4.5"/>
  <circle class="dot-g" cx="395.0" cy="1124.0" r="4.5"/>
  <circle class="dot-g" cx="423.6" cy="1088.0" r="4.5"/>
  <circle class="dot-g" cx="97.2" cy="1144.0" r="4.5"/>
  <circle class="dot-g" cx="178.8" cy="1148.0" r="4.5"/>
  <circle class="dot-g" cx="260.4" cy="1152.0" r="4.5"/>
  <circle class="dot-g" cx="342.0" cy="1144.0" r="4.5"/>
  <circle class="dot-g" cx="403.2" cy="1132.0" r="4.5"/>
  <circle class="dot-g" cx="150.2" cy="1062.0" r="4.5"/>
  <circle class="dot-g" cx="227.8" cy="1068.0" r="4.5"/>
  <circle class="dot-g" cx="382.8" cy="1078.0" r="4.5"/>
  <text class="st" x="44" y="980" text-anchor="start" dominant-baseline="central" >CONSTRAINED</text>
  <text class="st" x="436" y="1156" text-anchor="end" dominant-baseline="central" >LEFT OPEN</text>
  <line class="thin" x1="48" y1="1186" x2="432" y2="1186"/>
  <text class="st" x="48" y="1208" text-anchor="start" dominant-baseline="central" >THREAT-RELEVANT ACTIVITY MISSED</text>
  <text class="sv" x="432" y="1208" text-anchor="end" dominant-baseline="central" >FEWER</text>
  <text class="st" x="48" y="1232" text-anchor="start" dominant-baseline="central" >OTHER ACTIVITY CONSTRAINED</text>
  <text class="sv" x="432" y="1232" text-anchor="end" dominant-baseline="central" >FEWER</text>
  <text class="st" x="48" y="1256" text-anchor="start" dominant-baseline="central" >CASE-LEVEL INFORMATION REQUIRED</text>
  <text class="sv" x="432" y="1256" text-anchor="end" dominant-baseline="central" >HIGHER</text>
  <rect class="band" x="20" y="1292" width="440" height="84" stroke-dasharray="6 4" stroke="#8a95a3" fill="#f7f9fb"/>
  <text class="b2" x="240.0" y="1315.0" text-anchor="middle" dominant-baseline="central" >Broader and narrower rules trade false positives</text>
  <text class="b2" x="240.0" y="1334.0" text-anchor="middle" dominant-baseline="central" >against false negatives. Better targeting can reduce</text>
  <text class="b2" x="240.0" y="1353.0" text-anchor="middle" dominant-baseline="central" >both, but requires more information and oversight.</text>

</svg>
